#!OML:ASF H:\GeneralSubjects\Female5\Project 1\Capture day 1\Session 1\Female5.ASF
:FULLY-SPECIFIED
:DEGREES
596
root 27.9633 16.2063 4.12427 -168.039 0.468058 -177.914
lowerback 8.69363 0.672498 -0.741785
upperback -10.149 2.05861 2.75267
thorax -16.4533 1.62948 2.96815
lowerneck -15.8941 4.90421 6.69987
upperneck 30.312 4.88108 -4.4865
head 13.1025 1.66968 -2.27396
rclavicle 9.64106e-015 2.14687e-014
rhumerus -55.5341 18.0172 -81.2632
rradius 35.6637
rwrist -12.6251
rhand -27.1211 -16.8443
rfingers 7.12502
rthumb -0.537004 -46.8234
lclavicle 9.64106e-015 2.14687e-014
lhumerus -47.0829 5.85956 63.0404
lradius 30.311
lwrist -9.26852
lhand -30.0923 30.7994
lfingers 7.12502
lthumb -3.40658 60.752
rfemur -20.4208 -0.926379 32.2752
rtibia 27.1963
rfoot -14.2761 3.14593
rtoes -43.9134
lfemur -13.1274 -18.7396 -19.8886
ltibia 12.1034
lfoot -22.0429 -4.98792
ltoes -27.4684
597
root 27.8689 16.2181 4.10718 -168.029 0.516385 -177.769
lowerback 8.54573 0.717309 -0.64713
upperback -10.0832 2.16592 2.9418
thorax -16.2892 1.68492 3.10629
lowerneck -16.0073 4.93164 6.17956
upperneck 30.286 5.11686 -4.58259
head 13.1147 1.69992 -2.1819
rclavicle -1.42131e-014 -2.62396e-014
rhumerus -55.6189 18.1975 -80.8762
rradius 35.669
rwrist -12.9524
rhand -26.9554 -17.1177
rfingers 7.12502
rthumb -0.376975 -47.0971
lclavicle -1.42131e-014 -2.62396e-014
lhumerus -47.995 4.91338 63.9836
lradius 31.1912
lwrist -7.94504
lhand -30.3405 31.6303
lfingers 7.12502
lthumb -3.64624 61.5789
rfemur -19.84 -0.644994 33.8616
rtibia 25.5984
rfoot -14.0577 2.9173
rtoes -46.2994
lfemur -12.8685 -19.0872 -20.1278
ltibia 11.7623
lfoot -22.4948 -4.86488
ltoes -27.5473
598
root 27.7802 16.2198 4.09677 -167.836 0.598139 -177.768
lowerback 8.16693 0.758298 -0.632449
upperback -10.1285 2.28665 3.143
thorax -16.1189 1.77127 3.30097
lowerneck -15.7007 4.99376 5.59407
upperneck 30.1906 5.44703 -4.7867
head 13.0153 1.74311 -2.11182
rclavicle -6.36111e-015 -7.95139e-016
rhumerus -55.8807 18.3651 -80.351
rradius 35.678
rwrist -13.19
rhand -26.5285 -17.3404
rfingers 7.12502
rthumb 0.0353383 -47.3201
lclavicle -6.36111e-015 -7.95139e-016
lhumerus -48.5202 5.25163 64.6877
lradius 31.4372
lwrist -7.62844
lhand -30.6264 31.9544
lfingers 7.12502
lthumb -3.92241 61.898
rfemur -19.3515 -0.350271 35.0328
rtibia 23.8627
rfoot -13.0563 2.29014
rtoes -48.3914
lfemur -12.9424 -19.2294 -20.3885
ltibia 11.6185
lfoot -22.8654 -4.89438
ltoes -27.6522
599
root 27.6898 16.2159 4.08407 -167.74 0.706796 -177.957
lowerback 7.97241 0.702078 -0.363885
upperback -10.1055 2.20355 2.92948
thorax -15.9306 1.6749 2.92897
lowerneck -15.7337 5.28379 5.96132
upperneck 30.2435 5.89048 -5.20936
head 13.1057 1.91853 -2.26988
rclavicle 6.95746e-015 -3.97569e-015
rhumerus -55.721 18.0156 -80.388
rradius 35.3937
rwrist -13.2251
rhand -26.6049 -17.3921
rfingers 7.12502
rthumb -0.0385229 -47.3718
lclavicle 6.95746e-015 -3.97569e-015
lhumerus -48.2131 6.2188 64.6154
lradius 31.0816
lwrist -7.58577
lhand -30.6574 32.3412
lfingers 7.12502
lthumb -3.9523 62.2843
rfemur -18.5931 -0.187107 35.5524
rtibia 21.9498
rfoot -11.2493 1.29247
rtoes -49.209
lfemur -13.4155 -17.717 -20.8806
ltibia 12.2514
lfoot -21.8738 -5.67757
ltoes -27.7938
600
root 27.5861 16.2047 4.05503 -167.816 0.954133 -178.325
lowerback 7.75485 0.68412 -0.0126242
upperback -10.025 2.14926 2.59303
thorax -15.65 1.56522 2.36853
lowerneck -15.6327 5.64028 6.5173
upperneck 30.2625 6.4253 -5.7933
head 13.1805 2.13344 -2.51058
rclavicle 3.926e-015 -1.90833e-014
rhumerus -55.5964 17.6348 -80.576
rradius 35.0783
rwrist -13.3743
rhand -27.3077 -17.3968
rfingers 7.12502
rthumb -0.717296 -47.3753
lclavicle 3.926e-015 -1.90833e-014
lhumerus -47.4182 8.09934 64.115
lradius 30.4395
lwrist -7.20663
lhand -30.3543 33.2113
lfingers 7.12502
lthumb -3.65962 63.1597
rfemur -17.4749 0.0738846 35.289
rtibia 19.8828
rfoot -8.97704 0.417447
rtoes -38.2454
lfemur -13.3806 -16.8767 -21.8253
ltibia 12.6324
lfoot -21.0778 -5.95449
ltoes -28.7671
601
root 27.4885 16.1866 4.04206 -167.792 1.10426 -178.901
lowerback 7.58404 0.713331 -0.108555
upperback -10.0124 2.1242 2.34483
thorax -15.5106 1.53805 2.15247
lowerneck -15.2934 5.97078 7.12812
upperneck 30.2211 6.98213 -6.62227
head 13.2026 2.33048 -2.85818
rclavicle -1.0635e-014 -1.98785e-014
rhumerus -55.6015 17.3324 -80.5805
rradius 34.8685
rwrist -13.6417
rhand -27.3734 -17.4739
rfingers 7.12502
rthumb -0.780695 -47.4522
lclavicle -1.0635e-014 -1.98785e-014
lhumerus -47.5413 8.36794 64.5848
lradius 31.1061
lwrist -5.14484
lhand -28.7632 33.6132
lfingers 7.12502
lthumb -2.12306 63.5824
rfemur -16.533 0.534676 34.5149
rtibia 17.9362
rfoot -7.08117 0.04272
rtoes -37.5054
lfemur -13.7331 -15.6857 -22.9464
ltibia 13.3641
lfoot -19.1538 -6.02771
ltoes -30.9463
602
root 27.3925 16.1637 4.033 -167.872 1.22327 -179.53
lowerback 7.57002 0.735702 0.379701
upperback -9.89484 2.14963 2.04318
thorax -15.3224 1.45457 1.53869
lowerneck -15.2513 6.30858 6.75088
upperneck 30.2436 7.68653 -6.97044
head 13.2644 2.53587 -2.81817
rclavicle -5.1684e-015 -8.74653e-015
rhumerus -55.3481 17.2061 -80.5249
rradius 34.5519
rwrist -13.8607
rhand -26.5981 -17.6435
rfingers 7.12502
rthumb -0.0319666 -47.6232
lclavicle -5.1684e-015 -8.74653e-015
lhumerus -47.5813 8.24355 65.761
lradius 31.5199
lwrist -3.509
lhand -28.8099 34.1091
lfingers 7.12502
lthumb -2.1681 64.0778
rfemur -15.5353 1.04125 33.4018
rtibia 16.2142
rfoot -5.96501 0.442599
rtoes -34.6776
lfemur -14.2153 -14.5851 -24.1542
ltibia 14.5433
lfoot -19.1037 -7.15332
ltoes -30.9204
603
root 27.297 16.1416 4.02613 -168.208 1.31965 -179.953
lowerback 7.92009 0.840226 0.443403
upperback -9.81489 2.28442 2.03805
thorax -15.4533 1.49917 1.46433
lowerneck -14.8698 6.65135 6.97401
upperneck 30.3287 8.37984 -7.8962
head 13.3468 2.71636 -3.1255
rclavicle 1.53064e-014 -3.26007e-014
rhumerus -55.3845 17.144 -80.3051
rradius 34.1925
rwrist -13.904
rhand -26.6115 -17.8764
rfingers 7.12502
rthumb -0.0448316 -47.8561
lclavicle 1.53064e-014 -3.26007e-014
lhumerus -47.8046 7.74938 67.5434
lradius 31.6239
lwrist -2.06961
lhand -29.3148 34.0073
lfingers 7.12502
lthumb -2.6557 63.9705
rfemur -14.3488 1.38648 32.3384
rtibia 14.7605
rfoot -5.45601 1.36696
rtoes -31.67
lfemur -14.5758 -13.5795 -25.1943
ltibia 16.1135
lfoot -18.4574 -7.67956
ltoes -31.9494
604
root 27.2021 16.1135 4.02653 -168.573 1.39104 -180.256
lowerback 8.4249 0.795487 1.76212
upperback -9.67147 2.36124 1.79026
thorax -15.5441 1.34583 0.425244
lowerneck -14.7586 7.10007 6.05284
upperneck 30.4331 9.27992 -7.92241
head 13.4024 2.97023 -2.83699
rclavicle -1.2424e-014 3.10104e-014
rhumerus -55.1209 17.2637 -80.3786
rradius 33.7486
rwrist -13.7743
rhand -27.1698 -18.1026
rfingers 7.12502
rthumb -0.584116 -48.0815
lclavicle -1.2424e-014 3.10104e-014
lhumerus -47.8627 7.68251 68.8366
lradius 31.5747
lwrist -1.17608
lhand -28.9591 32.4152
lfingers 7.12502
lthumb -2.31222 62.3824
rfemur -13.3878 1.42812 31.3951
rtibia 13.7416
rfoot -5.56573 2.41029
rtoes -31.1585
lfemur -15.3448 -12.5967 -26.0584
ltibia 18.4327
lfoot -17.7624 -8.31015
ltoes -33.4299
605
root 27.1083 16.0781 4.02698 -168.973 1.49999 -180.481
lowerback 8.95859 0.8256 2.48185
upperback -9.55757 2.49422 1.71966
thorax -15.7219 1.30399 -0.0953546
lowerneck -14.5257 7.5669 5.99919
upperneck 30.6413 10.0983 -8.42179
head 13.5512 3.21847 -2.90701
rclavicle -9.93923e-017 -5.00937e-014
rhumerus -55.0311 17.4056 -80.3709
rradius 33.3447
rwrist -13.6015
rhand -26.9897 -18.0286
rfingers 7.12502
rthumb -0.410119 -48.008
lclavicle -9.93923e-017 -5.00937e-014
lhumerus -47.9783 7.74533 69.948
lradius 31.4851
lwrist -1.845
lhand -28.1535 29.7875
lfingers 7.12502
lthumb -1.5342 59.7618
rfemur -12.568 1.34283 30.5772
rtibia 12.9999
rfoot -5.87307 3.22002
rtoes -31.35
lfemur -17.4366 -5.97835 -26.541
ltibia 22.3702
lfoot -12.4857 -10.8873
ltoes -35.2164
606
root 27.0171 16.0423 4.03565 -169.24 1.63019 -180.257
lowerback 9.47485 0.934281 2.88973
upperback -9.53683 2.76388 1.91897
thorax -16.0279 1.39241 -0.174662
lowerneck -14.0838 7.99329 6.84252
upperneck 30.8053 10.7531 -9.36998
head 13.7236 3.45053 -3.34373
rclavicle -4.27387e-015 6.36111e-015
rhumerus -55.2166 17.5763 -80.3518
rradius 33.0834
rwrist -13.4244
rhand -26.861 -17.767
rfingers 7.12502
rthumb -0.285818 -47.7466
lclavicle -4.27387e-015 6.36111e-015
lhumerus -48.2348 7.5209 71.102
lradius 31.4341
lwrist -3.32497
lhand -26.4391 27.9715
lfingers 7.12502
lthumb 0.121673 57.9512
rfemur -12.0203 1.27435 30.4306
rtibia 12.4526
rfoot -6.18988 3.27522
rtoes -30.7914
lfemur -18.4911 -4.71843 -26.6333
ltibia 24.7522
lfoot -11.8 -10.7918
ltoes -37.4844
